:SAMPLES-PER-SECOND 30
:FULLY-SPECIFIED
:DEGREES
695
root  48.6483 34.5928 52.3364 -152.189 77.4156 -157.749
LeftUpLeg  -13.3655 16.0131 14.6123
LeftLeg  21.3577 28.1138 8.53801
LeftFoot  10.558 -0.548035 5.92602
LeftToes  -26.263 1.61378e-006 8.80029e-008
Spine  1.80324 0.897232 4.29335
Spine1  3.65998 1.9673 8.08762
RightShoulder  0.0730335 4.01707 6.68425
RightArm  -17.7049 -10.1125 62.2087
RightForeArm  0.90073 56.89 15.7047
RightHand  -1.58568 -11.3336 16.2396
LeftShoulder1  0.00298428 -1.03591 -7.69198
LeftArm  -57.8198 -9.37518 -44.985
LeftForeArm  -6.41425 -39.145 -8.22017
LeftHand  -0.153814 7.62076 -2.67666
HEad  -14.6262 8.55578 -4.19605
RightUpLeg  -9.55172 -9.60372 8.72797
RightLeg  10.8063 11.8345 1.47186
RightFoot  -0.707307 -0.0050146 -0.14323
RightToes  -16.3316 -0.0728297 -0.150606
696
root  48.6324 34.5846 52.345 -151.894 77.18 -157.562
LeftUpLeg  -13.7322 16.2639 14.7094
LeftLeg  21.6534 27.7123 8.57577
LeftFoot  10.5035 -0.534243 5.80722
LeftToes  -26.5137 1.61378e-006 8.80029e-008
Spine  1.82054 0.9703 4.31728
Spine1  3.69537 2.11155 8.14316
RightShoulder  0.0746368 4.23234 6.76063
RightArm  -18.6017 -9.70711 62.8633
RightForeArm  0.832569 56.0043 15.1715
RightHand  -1.53724 -11.125 16.0473
LeftShoulder1  0.00299628 -1.05956 -7.83554
LeftArm  -57.0254 -8.62878 -46.327
LeftForeArm  -5.1411 -37.7497 -7.81723
LeftHand  -0.150823 7.15162 -2.78043
HEad  -15.5143 7.56034 -3.7753
RightUpLeg  -9.73981 -9.70487 8.89248
RightLeg  10.8801 11.7644 1.47853
RightFoot  -0.73853 -0.00466004 -0.147146
RightToes  -16.2712 -0.0728297 -0.150933
697
root  48.6307 34.5742 52.3442 -151.831 76.9283 -157.549
LeftUpLeg  -13.9932 16.3924 14.7799
LeftLeg  21.8952 27.3745 8.60106
LeftFoot  10.388 -0.515734 5.66892
LeftToes  -26.6303 1.61378e-006 8.80029e-008
Spine  1.83177 1.04638 4.32963
Spine1  3.71567 2.25398 8.18809
RightShoulder  0.0760005 4.47214 6.85749
RightArm  -19.5716 -9.34089 63.4394
RightForeArm  0.653814 53.8287 13.9646
RightHand  -1.39276 -11.2165 14.4741
LeftShoulder1  0.00329151 -1.18501 -7.82183
LeftArm  -55.3137 -7.7784 -47.9981
LeftForeArm  -1.89299 -34.6868 -6.98514
LeftHand  -0.0487479 6.4833 -1.22932
HEad  -16.1519 6.51543 -3.33301
RightUpLeg  -9.86034 -9.8885 9.00366
RightLeg  11.002 11.7597 1.50316
RightFoot  -0.834862 -0.00356016 -0.16573
RightToes  -16.2548 -0.0728297 -0.151261
698
root  48.6466 34.5709 52.3303 -151.82 76.7092 -157.58
LeftUpLeg  -14.1245 16.4822 14.8186
LeftLeg  21.9608 27.1411 8.5667
LeftFoot  10.2958 -0.501536 5.56266
LeftToes  -26.9003 1.61378e-006 8.80029e-008
Spine  1.80332 1.1057 4.31721
Spine1  3.64979 2.359 8.19623
RightShoulder  0.0768574 4.69248 6.94912
RightArm  -20.7043 -8.88715 64.142
RightForeArm  1.51188 49.8868 12.0834
RightHand  -1.08916 -11.1023 11.5346
LeftShoulder1  0.0039179 -1.31339 -7.81449
LeftArm  -51.3703 -6.6026 -49.6808
LeftForeArm  4.02499 -30.4267 -5.92764
LeftHand  0.0631006 5.68823 0.899036
HEad  -16.3838 5.4433 -2.85586
RightUpLeg  -9.89687 -10.0125 9.07392
RightLeg  11.0295 11.6838 1.49924
RightFoot  -0.862901 -0.00365634 -0.169257
RightToes  -16.3668 -0.0728297 -0.151571
699
root  48.6837 34.5758 52.2971 -151.849 76.6221 -157.669
LeftUpLeg  -14.0806 16.4175 14.7897
LeftLeg  21.8471 27.1801 8.52168
LeftFoot  10.283 -0.500342 5.55638
LeftToes  -27.0723 1.61378e-006 8.80029e-008
Spine  1.73163 1.10484 4.26876
Spine1  3.48384 2.33263 8.15426
RightShoulder  0.0769396 4.851 7.00527
RightArm  -22.2786 -7.94644 65.1464
RightForeArm  4.87904 43.4476 9.61248
RightHand  -0.685603 -10.3534 7.92177
LeftShoulder1  0.00492338 -1.40923 -8.04506
LeftArm  -45.6373 -4.91535 -51.3759
LeftForeArm  13.1974 -25.7327 -4.86619
LeftHand  0.110777 4.5903 2.38984
HEad  -16.1541 4.68189 -2.36974
RightUpLeg  -9.86401 -9.78118 9.03973
RightLeg  10.9821 11.3749 1.45063
RightFoot  -0.89046 -0.00424653 -0.169048
RightToes  -16.3838 -0.0728297 -0.151845
700
root  48.7347 34.5804 52.2451 -151.812 76.722 -157.674
LeftUpLeg  -13.9126 16.4348 14.7129
LeftLeg  21.7324 27.2584 8.48713
LeftFoot  10.2214 -0.495109 5.53166
LeftToes  -27.1844 1.61378e-006 8.80029e-008
Spine  1.64441 1.05509 4.19931
Spine1  3.28158 2.20158 8.08083
RightShoulder  0.0749592 5.06081 6.96339
RightArm  -24.3221 -6.41329 66.2285
RightForeArm  10.8571 34.1015 6.85203
RightHand  -0.241976 -8.94717 3.45956
LeftShoulder1  0.00635587 -1.4923 -8.28977
LeftArm  -39.3745 -2.34268 -53.6587
LeftForeArm  25.5546 -21.529 -3.98178
LeftHand  0.0678741 2.74102 2.46023
HEad  -15.5404 4.28578 -1.92919
RightUpLeg  -9.84089 -9.46745 8.91228
RightLeg  11.0857 11.1501 1.44265
RightFoot  -0.993558 -0.00487732 -0.185088
RightToes  -16.2836 -0.0728297 -0.152067
701
root  48.8089 34.5485 52.1744 -151.854 76.9454 -157.781
LeftUpLeg  -13.9575 16.5446 14.5669
LeftLeg  22.2881 27.2642 8.76487
LeftFoot  9.86509 -0.463516 5.36692
LeftToes  -27.2354 1.61378e-006 8.80029e-008
Spine  1.65223 1.16162 4.14653
Spine1  3.28681 2.52554 7.85906
RightShoulder  0.110284 5.51436 7.07234
RightArm  -27.3065 -4.8396 66.8368
RightForeArm  18.5064 23.4472 4.3814
RightHand  0.129017 -7.57108 -1.57834
LeftShoulder1  0.00977677 -1.44004 -8.65156
LeftArm  -33.5684 0.434981 -56.6812
LeftForeArm  36.7727 -17.5577 -3.1855
LeftHand  0.0154714 0.651967 2.32394
HEad  -14.9587 4.04328 -1.63206
RightUpLeg  -10.1657 -9.1843 8.69217
RightLeg  12.0283 11.0349 1.61158
RightFoot  -1.55276 -0.00902581 -0.288625
RightToes  -16.4537 -0.0728297 -0.152218
702
root  48.8984 34.473 52.0872 -151.646 77.3413 -157.65
LeftUpLeg  -14.2575 16.7723 14.4074
LeftLeg  23.66 27.1998 9.43222
LeftFoot  9.11541 -0.397216 4.97981
LeftToes  -27.2379 1.61378e-006 8.80029e-008
Spine  1.69748 1.3735 4.1058
Spine1  3.31058 3.04027 7.60396
RightShoulder  0.181132 6.36576 7.44354
RightArm  -32.2576 -4.71598 66.8515
RightForeArm  27.0004 16.5624 3.00171
RightHand  0.431881 -7.46271 -6.23945
LeftShoulder1  0.0172593 -1.25338 -9.1415
LeftArm  -28.2018 3.57812 -60.1651
LeftForeArm  42.9552 -13.9656 -2.49545
LeftHand  -0.00618822 -0.311926 1.94642
HEad  -14.5795 4.02641 -1.47298
RightUpLeg  -10.8018 -8.741 8.42299
RightLeg  13.715 10.9134 1.92118
RightFoot  -2.4948 -0.0183881 -0.467042
RightToes  -17.0007 -0.0728297 -0.152281
703
root  48.9848 34.4038 51.9954 -151.105 77.8618 -157.115
LeftUpLeg  -14.4564 17.0021 14.2854
LeftLeg  25.0651 27.226 10.1535
LeftFoot  8.35217 -0.335103 4.58701
LeftToes  -27.0343 1.61378e-006 8.80029e-008
Spine  1.64197 1.47053 4.00387
Spine1  3.12008 3.2114 7.41793
RightShoulder  0.232136 7.45346 7.78644
RightArm  -39.2362 -5.53685 66.3508
RightForeArm  34.7947 10.349 1.83976
RightHand  0.743809 -8.41256 -9.71007
LeftShoulder1  0.0288119 -1.21628 -9.62075
LeftArm  -25.3065 7.99209 -63.7692
LeftForeArm  45.5119 -12.3095 -2.1849
LeftHand  -0.00110927 -0.241641 0.160497
HEad  -14.4674 4.15895 -1.51656
RightUpLeg  -11.2797 -8.47739 8.16383
RightLeg  15.2037 11.103 2.25052
RightFoot  -3.35627 -0.0300844 -0.649422
RightToes  -17.0977 -0.0728297 -0.152281
704
root  49.0778 34.3577 51.9156 -150.573 78.1374 -156.532
LeftUpLeg  -14.5714 17.0433 14.2868
LeftLeg  26.2099 27.2287 10.7432
LeftFoot  7.77032 -0.290511 4.27571
LeftToes  -26.9171 1.61378e-006 8.80029e-008
Spine  1.51318 1.48333 3.90838
Spine1  2.84539 3.17474 7.29621
RightShoulder  0.253096 8.31867 8.22998
RightArm  -44.0918 -7.88513 65.2609
RightForeArm  38.2347 6.49419 1.14475
RightHand  1.03867 -10.4164 -10.9811
LeftShoulder1  0.0317653 -0.833348 -9.74707
LeftArm  -26.4091 12.7026 -68.085
LeftForeArm  43.9305 -11.3052 -2.00298
LeftHand  0.000325548 0.524952 -0.295052
HEad  -14.5955 4.20943 -1.51441
RightUpLeg  -11.4312 -8.33427 8.0191
RightLeg  16.083 11.2132 2.45073
RightFoot  -3.93169 -0.0398083 -0.782335
RightToes  -17.2044 -0.0728297 -0.152281
705
root  49.1744 34.3265 51.8396 -150.092 78.2118 -155.969
LeftUpLeg  -14.6 16.9052 14.3636
LeftLeg  27.0742 27.2708 11.2082
LeftFoot  7.30712 -0.257338 4.02848
LeftToes  -26.823 1.61378e-006 8.80029e-008
Spine  1.34312 1.51696 3.85906
Spine1  2.54036 3.18254 7.25284
RightShoulder  0.249436 8.56558 8.96162
RightArm  -46.0492 -11.4242 64.0385
RightForeArm  38.6447 5.294 0.931622
RightHand  1.07936 -11.5546 -10.262
LeftShoulder1  0.0275858 -0.325426 -9.70433
LeftArm  -28.7314 17.3969 -72.7296
LeftForeArm  39.3698 -10.4196 -1.84737
LeftHand  0.0240251 2.36029 0.793945
HEad  -14.6954 4.1373 -1.37159
RightUpLeg  -11.4487 -8.45909 7.95343
RightLeg  16.7345 11.4069 2.62746
RightFoot  -4.37129 -0.0487963 -0.901101
RightToes  -17.2849 -0.0728297 -0.152281
